<svg xmlns="http://www.w3.org/2000/svg" viewBox="0 0 296.8 426.4" xml:space="preserve"><path d="M148.4 276.1c-35.2 0-63.7-28.5-63.7-63.7V63.7C84.7 28.5 113.2 0 148.4 0s63.7 28.5 63.7 63.7v148.7c0 35.2-28.5 63.7-63.7 63.7z" fill="#4285f4"/><path fill="#34a853" d="M127.2 348.5h42.5v77.9h-42.5z"/><path d="M254.8 213.2c-.1 58.6-47.8 106.3-106.4 106.3-29.4 0-56.1-12-75.4-31.4l-29.7 29.7c26.9 26.9 64 43.6 105.1 43.6 81.9 0 148.3-66.4 148.4-148.3h-42z" fill="#ea4335"/><path d="M73 288.1c-19.1-19.2-31-45.7-31-74.9H0C0 254 16.6 291 43.3 317.8L73 288.1z" fill="#fbbc05"/></svg>